<?xml version="1.0" encoding="UTF-8" standalone="no"?>
<svg
   width="800"
   height="800"
   viewBox="-105 -105 210 210"
   version="1.1"
   id="svg12"
   sodipodi:docname="Soccer_ball.svg"
   xmlns:inkscape="http://www.inkscape.org/namespaces/inkscape"
   xmlns:sodipodi="http://sodipodi.sourceforge.net/DTD/sodipodi-0.dtd"
   xmlns:xlink="http://www.w3.org/1999/xlink"
   xmlns="http://www.w3.org/2000/svg"
   xmlns:svg="http://www.w3.org/2000/svg">
  <sodipodi:namedview
     id="namedview12"
     pagecolor="#ffffff"
     bordercolor="#999999"
     borderopacity="1"
     inkscape:showpageshadow="0"
     inkscape:pageopacity="0"
     inkscape:pagecheckerboard="0"
     inkscape:deskcolor="#d1d1d1"
     inkscape:zoom="1.025"
     inkscape:cx="400"
     inkscape:cy="451.70732"
     inkscape:window-width="1920"
     inkscape:window-height="1024"
     inkscape:window-x="0"
     inkscape:window-y="0"
     inkscape:window-maximized="1"
     inkscape:current-layer="svg12" />
  <defs
     id="defs8">
    <radialGradient
       id="b"
       cx="-19.999999"
       cy="-39.999998"
       r="160"
       fx="-19.999999"
       fy="-39.999998"
       gradientUnits="userSpaceOnUse">
      <stop
         offset="0"
         stop-color="#fff"
         id="stop1" />
      <stop
         offset=".4"
         stop-color="#fff"
         id="stop2" />
      <stop
         offset=".8"
         stop-color="#EEE"
         id="stop3" />
    </radialGradient>
    <radialGradient
       id="d"
       cx="0"
       cy="0"
       r="100"
       fx="0"
       fy="0"
       gradientUnits="userSpaceOnUse">
      <stop
         offset="0"
         stop-color="#fff"
         stop-opacity="0"
         id="stop4" />
      <stop
         offset=".8"
         stop-color="#fff"
         stop-opacity="0"
         id="stop5" />
      <stop
         offset=".99"
         stop-opacity=".3"
         id="stop6" />
      <stop
         offset="1"
         id="stop7" />
    </radialGradient>
    <clipPath
       id="a">
      <circle
         r="100"
         stroke-width="0"
         id="circle7"
         cx="0"
         cy="0" />
    </clipPath>
    <g
       id="c"
       stroke-linejoin="round"
       clip-path="url(#a)">
      <path
         d="m 6,-32 q 20,4 40,13 11,-16 18,-28 -14,-21 -27,-29 -20,1 -36,8 3,17 5,36 m -32,30 q -19,-6 -36,-9 -12,16 -14,33 7,18 26,32 18,-7 33,-15 -6,-24 -9,-41 m -69,24 q -7,-10 -7,-30 v 88 h 17 Q -95,45 -95,22 M 55,24 Q 41,41 24,52 28,65 31,79 55,78 68,67 78,50 80,35 65,28 55,24 M 0,120 -3,95 q -22,-2 -39,-13 -8,2 -18,-1 M -90,-48 q 10,-4 22,-1 16,-22 33,-28 0,-23 -5,-23 h -60 m 200,45 -13,18 q 11,27 10,42 l 3,1"
         id="path7" />
      <path
         fill="none"
         d="m 6,-32 q -24,20 -32,30 m 72,-17 q 8,24 9,43 m 9,-71 q 13,3 23,10 M 37,-76 q 2,-14 -1,-24 M 1,-68 q -14,-9 -36,-9 m -27,66 q -5,-14 -6,-38 m -8,71 q -9,2 -19,0 m 45,32 q 1,16 8,28 m 25,-43 q 17,9 41,13 m 7,27 Q 20,92 -3,95 M 68,67 80,80 M 80,35 Q 90,25 97,5"
         id="path8" />
    </g>
  </defs>
  <circle
     r="100"
     fill="#ffffff"
     id="circle8"
     cx="0"
     cy="0" />
  <circle
     r="100"
     fill="url(#b)"
     id="circle9"
     cx="0"
     cy="0"
     style="fill:url(#b)" />
  <use
     xlink:href="#c"
     stroke="#eeeeee"
     stroke-width="7"
     id="use9" />
  <use
     xlink:href="#c"
     stroke="#dddddd"
     stroke-width="4"
     id="use10" />
  <use
     xlink:href="#c"
     stroke="#999999"
     stroke-width="2"
     id="use11" />
  <use
     xlink:href="#c"
     stroke="#000000"
     id="use12" />
  <circle
     r="100"
     fill="url(#d)"
     id="circle12"
     cx="0"
     cy="0"
     style="fill:url(#d)" />
</svg>
